<?xml version="1.0" standalone="no"?>
<!DOCTYPE svg PUBLIC "-//W3C//DTD SVG 20010904//EN"
 "http://www.w3.org/TR/2001/REC-SVG-20010904/DTD/svg10.dtd">
<svg version="1.0" xmlns="http://www.w3.org/2000/svg"
 width="300.000000pt" height="300.000000pt" viewBox="0 0 300.000000 300.000000"
 preserveAspectRatio="xMidYMid meet">
<metadata>
Created by potrace 1.14, written by Peter Selinger 2001-2017
</metadata>
<g transform="translate(0.000000,300.000000) scale(0.100000,-0.100000)"
fill="#000000" stroke="none">
<path d="M1430 2987 c-14 -8 -79 -59 -144 -115 -65 -56 -124 -102 -131 -102
-7 0 -48 -35 -91 -78 -101 -100 -201 -185 -239 -205 -16 -8 -46 -32 -65 -53
-19 -22 -56 -57 -83 -79 l-48 -41 -44 -899 c-24 -495 -46 -913 -49 -930 -2
-16 1 -51 7 -77 11 -49 29 -68 77 -83 42 -13 512 -211 567 -239 77 -39 190
-73 266 -80 l67 -7 85 58 c77 52 86 62 91 96 4 20 11 37 16 37 5 0 72 7 148
15 137 15 201 11 235 -15 6 -4 65 -19 132 -34 124 -28 225 -37 239 -23 4 4 6
49 5 100 -4 138 -29 567 -35 607 -6 37 -46 911 -70 1534 -14 365 -22 428 -46
360 -8 -22 -25 -37 -66 -58 -31 -15 -58 -25 -60 -23 -2 2 10 16 26 32 35 34
39 51 8 31 -16 -9 -59 -14 -138 -15 -104 -1 -130 3 -265 38 l-150 39 -5 45
c-5 44 -7 47 -81 95 -83 54 -138 85 -106 59 15 -12 17 -33 17 -166 0 -122 -3
-151 -14 -151 -29 0 -34 27 -32 183 0 86 1 157 1 157 0 0 -11 -6 -25 -13z
m574 -488 c-71 -37 -96 -58 -90 -76 10 -24 -3 -13 -19 17 -19 37 -19 46 0 30
12 -10 22 -6 55 24 30 27 49 36 76 36 l36 0 -58 -31z m-143 -31 c8 -15 8 -18
0 -14 -6 4 -16 16 -22 28 -8 15 -8 18 0 14 6 -4 16 -16 22 -28z m204 12 c-11
-5 -42 -18 -70 -30 -47 -20 -49 -22 -31 -36 24 -17 58 -18 74 -2 17 17 15 28
-5 29 -10 0 -5 5 11 10 40 11 44 5 21 -36 -12 -23 -25 -35 -39 -35 -24 0 -88
32 -93 46 -4 13 96 63 127 63 23 0 23 -1 5 -9z m-233 -329 c-4 -18 -2 -22 8
-16 9 5 11 4 6 -4 -14 -22 -26 0 -25 47 1 38 2 42 9 22 4 -14 5 -36 2 -49z
m33 18 c10 -56 1 -59 -12 -4 -6 25 -7 45 -2 45 4 0 10 -18 14 -41z m45 -31 c6
-17 5 -28 -1 -28 -5 0 -9 7 -9 15 0 8 -4 15 -8 15 -5 0 -6 15 -3 33 3 22 6 26
9 12 2 -11 7 -32 12 -47z m20 36 c0 -8 5 -14 10 -14 6 0 10 7 10 15 0 8 3 15
8 15 4 0 6 -19 5 -42 -2 -33 -1 -38 6 -23 9 19 10 19 10 -3 1 -30 -21 -24 -30
9 -6 20 -7 21 -9 4 -1 -14 -5 -10 -15 15 -17 43 -18 53 -5 45 6 -3 10 -13 10
-21z m160 -49 c0 -19 -4 -36 -9 -39 -5 -3 -8 11 -6 31 1 21 0 27 -2 13 -6 -34
-23 -50 -23 -21 0 29 18 63 31 56 5 -4 9 -21 9 -40z m29 -10 l0 -20 -9 20 c-5
11 -9 27 -9 35 -1 13 0 13 9 0 5 -8 9 -24 9 -35z m-117 10 c3 -14 1 -25 -3
-25 -5 0 -9 11 -9 25 0 14 2 25 4 25 2 0 6 -11 8 -25z m30 -5 c3 -16 1 -30 -4
-30 -4 0 -8 14 -8 30 0 17 2 30 4 30 2 0 6 -13 8 -30z m0 -335 l17 -110 -25
-32 c-27 -36 -46 -101 -25 -88 8 5 7 -3 -3 -23 -9 -17 -16 -41 -16 -54 l0 -23
-25 25 -25 25 15 140 c29 275 25 256 49 253 18 -3 23 -15 38 -113z m-82 -359
c14 -18 14 -19 -8 -7 -12 7 -20 17 -16 22 3 6 7 9 8 7 1 -2 8 -12 16 -22z
m487 -898 c-3 -8 -6 -5 -6 6 -1 11 2 17 5 13 3 -3 4 -12 1 -19z m-797 -229 c0
-163 -1 -177 -20 -194 -20 -18 -20 -17 -20 201 l0 219 20 -25 c18 -23 20 -42
20 -201z m-869 101 c5 0 7 -12 4 -27 -6 -25 -5 -26 6 -8 7 11 13 21 14 23 3 3
85 -26 112 -40 18 -9 20 -15 12 -29 -5 -11 -6 -19 -1 -19 5 0 14 10 21 23 11
21 11 20 6 -6 -4 -19 -2 -26 5 -22 5 3 10 13 10 21 0 8 5 14 10 14 13 0 13 -6
0 -31 -6 -10 -7 -19 -2 -19 5 0 14 10 20 23 11 20 11 20 6 -8 -5 -27 -4 -28 7
-10 7 11 13 21 14 23 1 1 9 0 18 -4 13 -4 14 -10 7 -24 -17 -31 -11 -36 11
-10 15 18 18 19 11 5 -5 -11 -7 -26 -5 -32 7 -19 2 -17 -162 45 -145 56 -150
59 -148 85 1 15 -2 25 -8 22 -5 -4 -9 -1 -9 5 0 7 7 9 16 6 9 -3 20 -6 25 -6z"/>
<path d="M860 329 c0 -5 5 -7 10 -4 6 3 10 8 10 11 0 2 -4 4 -10 4 -5 0 -10
-5 -10 -11z"/>
<path d="M897 333 c-4 -3 -7 -11 -7 -17 0 -6 5 -5 12 2 6 6 9 14 7 17 -3 3 -9
2 -12 -2z"/>
<path d="M1016 285 c-9 -26 -7 -32 5 -12 6 10 9 21 6 23 -2 3 -7 -2 -11 -11z"/>
</g>
</svg>
